<svg width="100%" height="100%" viewBox="0 0 14 14" fill="currentColor" xmlns="http://www.w3.org/2000/svg">
<path d="M9.04207 1.3125C9.04207 1.19647 9.08816 1.08519 9.17021 1.00314C9.25226 0.921094 9.36354 0.875 9.47957 0.875H12.6879C12.8039 0.875 12.9152 0.921094 12.9973 1.00314C13.0793 1.08519 13.1254 1.19647 13.1254 1.3125V4.52083C13.1254 4.63687 13.0793 4.74815 12.9973 4.83019C12.9152 4.91224 12.8039 4.95833 12.6879 4.95833C12.5719 4.95833 12.4606 4.91224 12.3785 4.83019C12.2965 4.74815 12.2504 4.63687 12.2504 4.52083V2.36833L8.04958 6.74333C8.00952 6.78632 7.96122 6.82079 7.90756 6.84471C7.85389 6.86862 7.79596 6.88148 7.73721 6.88251C7.67847 6.88355 7.62012 6.87274 7.56564 6.85074C7.51117 6.82873 7.46168 6.79598 7.42014 6.75444C7.37859 6.71289 7.34584 6.66341 7.32384 6.60893C7.30183 6.55446 7.29103 6.49611 7.29206 6.43736C7.2931 6.37862 7.30596 6.32069 7.32987 6.26702C7.35378 6.21335 7.38826 6.16505 7.43124 6.125L11.6321 1.75H9.47957C9.36354 1.75 9.25226 1.70391 9.17021 1.62186C9.08816 1.53981 9.04207 1.42853 9.04207 1.3125Z" fill="black"/>
<path d="M1.45801 2.47933C1.45801 1.91583 1.91534 1.4585 2.47884 1.4585H7.43717C7.55321 1.4585 7.66449 1.50459 7.74653 1.58664C7.82858 1.66868 7.87467 1.77996 7.87467 1.896C7.87467 2.01203 7.82858 2.12331 7.74653 2.20536C7.66449 2.2874 7.55321 2.3335 7.43717 2.3335H2.47884C2.44016 2.3335 2.40307 2.34886 2.37572 2.37621C2.34837 2.40356 2.33301 2.44065 2.33301 2.47933V11.521C2.33301 11.6015 2.39834 11.6668 2.47884 11.6668H11.5205C11.5592 11.6668 11.5963 11.6515 11.6236 11.6241C11.651 11.5968 11.6663 11.5597 11.6663 11.521V6.56266C11.6663 6.44663 11.7124 6.33535 11.7945 6.2533C11.8765 6.17126 11.9878 6.12516 12.1038 6.12516C12.2199 6.12516 12.3312 6.17126 12.4132 6.2533C12.4952 6.33535 12.5413 6.44663 12.5413 6.56266V11.521C12.5413 11.7917 12.4338 12.0514 12.2423 12.2428C12.0509 12.4343 11.7912 12.5418 11.5205 12.5418H2.47884C2.2081 12.5418 1.94845 12.4343 1.757 12.2428C1.56556 12.0514 1.45801 11.7917 1.45801 11.521V2.47933Z" fill="black"/>
</svg>
