<svg viewBox="0 0 18 16" fill="none" xmlns="http://www.w3.org/2000/svg">
<g clip-path="url(#clip0_956_2248)">
<path d="M11.75 3.75C11.75 3.98125 11.6656 4.34375 11.4563 4.84375C11.2531 5.325 10.9656 5.85625 10.6313 6.39687C10.0969 7.26562 9.47812 8.10625 9 8.72188C8.52188 8.10625 7.90313 7.26562 7.36875 6.39687C7.03438 5.85625 6.74687 5.325 6.54375 4.84375C6.33437 4.34688 6.25 3.98125 6.25 3.75C6.25 2.23125 7.48125 1 9 1C10.5188 1 11.75 2.23125 11.75 3.75ZM12.75 3.75C12.75 1.67812 11.0719 0 9 0C6.92812 0 5.25 1.67812 5.25 3.75C5.25 5.45625 7.53438 8.49687 8.5375 9.75C8.77813 10.05 9.225 10.05 9.4625 9.75C10.4656 8.49687 12.75 5.45625 12.75 3.75ZM12.6062 6.9875C12.6344 6.98125 12.6594 6.975 12.6844 6.9625L17 5.2375V13.1625L13 14.7625V9.5C13 9.225 12.775 9 12.5 9C12.225 9 12 9.225 12 9.5V14.8375L6 13.1219V9.5C6 9.225 5.775 9 5.5 9C5.225 9 5 9.225 5 9.5V13.1625L1 14.7625V6.8375L4.60938 5.39375C4.4875 5.08125 4.38438 4.75625 4.32188 4.43125L0.471875 5.97188C0.1875 6.0875 0 6.3625 0 6.66875V15.1313C0 15.6625 0.534375 16.025 1.02813 15.8281L5.52812 14.0281L12.3625 15.9812C12.4688 16.0125 12.5813 16.0063 12.6844 15.9656L17.5281 14.0281C17.8125 13.9156 18 13.6375 18 13.3313V4.86875C18 4.3375 17.4656 3.975 16.9719 4.17188L13.2875 5.64687C13.0969 6.09062 12.8625 6.54688 12.6062 6.9875Z" fill="#141414"/>
</g>
<defs>
<clipPath id="clip0_956_2248">
<rect width="18" height="16" fill="white"/>
</clipPath>
</defs>
</svg>
